<?xml version="1.0" encoding="UTF-8" standalone="no"?>
<svg
   version="1.1"
   id="Layer_1"
   x="0px"
   y="0px"
   width="100%"
   viewBox="0 0 576 576"
   enable-background="new 0 0 576 576"
   xml:space="preserve"
   sodipodi:docname="psk_logo.svg"
   inkscape:version="1.2.2 (b0a84865, 2022-12-01)"
   xmlns:inkscape="http://www.inkscape.org/namespaces/inkscape"
   xmlns:sodipodi="http://sodipodi.sourceforge.net/DTD/sodipodi-0.dtd"
   xmlns="http://www.w3.org/2000/svg"
   xmlns:svg="http://www.w3.org/2000/svg"><defs
   id="defs92" /><sodipodi:namedview
   id="namedview90"
   pagecolor="#ffffff"
   bordercolor="#000000"
   borderopacity="0.25"
   inkscape:showpageshadow="2"
   inkscape:pageopacity="0.0"
   inkscape:pagecheckerboard="0"
   inkscape:deskcolor="#d1d1d1"
   showgrid="false"
   inkscape:zoom="0.40972222"
   inkscape:cx="288"
   inkscape:cy="288"
   inkscape:window-width="1309"
   inkscape:window-height="456"
   inkscape:window-x="0"
   inkscape:window-y="38"
   inkscape:window-maximized="0"
   inkscape:current-layer="Layer_1" />

<path
   fill="#ED1B23"
   opacity="1.000000"
   stroke="none"
   d=" M263.803833,289.019806   C257.947357,285.031555 252.469543,280.259674 246.159286,277.210480   C230.758301,269.768463 215.254105,262.372955 199.263092,256.365082   C182.527802,250.077530 165.073685,245.732956 148.119705,239.990112   C128.255234,233.261414 109.710014,223.932373 95.073433,208.442078   C86.482124,199.349640 80.681320,188.616882 76.786789,176.520126   C71.868774,161.244370 70.934715,145.637589 72.222046,130.101837   C74.745796,99.644691 88.432037,75.370316 114.988708,58.936546   C131.965347,48.431072 150.568695,45.155403 169.845917,47.230465   C189.750809,49.373093 207.457458,57.701607 222.559494,71.082245   C229.149612,76.921188 235.613480,82.902641 241.713089,88.436859   C244.159653,77.390549 248.786835,65.670074 255.600296,54.881218   C268.117645,35.060539 285.309174,21.457989 307.680664,13.742651   C320.502563,9.320720 333.469696,9.184551 346.293274,10.299341   C362.881561,11.741411 377.577240,19.012932 390.408905,29.864597   C406.298798,43.302612 416.182526,60.611427 422.369141,80.069977   C424.819611,87.777306 425.509644,96.044250 427.002533,104.056137   C429.014709,114.854774 426.900726,125.443596 423.032745,135.191681   C419.058868,145.206619 414.042389,155.281448 407.366302,163.640152   C397.220581,176.342911 385.490234,187.827637 373.980377,199.378754   C364.053467,209.341248 352.916840,218.136398 343.352570,228.413208   C329.411102,243.393265 316.498901,259.313751 305.837769,277.679413   C304.196716,279.260803 303.194000,280.740692 301.800903,281.420013   C295.421234,284.530823 288.932251,287.417480 282.218903,290.346130   C281.294800,290.557281 280.634277,290.806915 279.988098,291.025146   C280.002441,290.993774 280.065674,291.021515 279.639587,290.936646   C274.076965,290.241119 268.940399,289.630463 263.803833,289.019806  M229.039520,215.532516   C230.752090,223.632782 232.274612,231.781372 234.313950,239.798523   C234.809219,241.745514 236.680450,244.180527 238.476166,244.815536   C246.816376,247.764893 258.460266,239.691879 258.155975,231.027603   C257.829773,221.740189 256.835419,212.463165 255.798630,203.219070   C255.253296,198.356766 256.598694,195.490234 261.530365,193.926712   C276.688477,189.121033 287.983215,179.137909 297.415802,166.641022   C308.577728,151.853012 310.499817,134.985245 301.742645,120.615669   C299.893921,117.582100 296.597839,114.607033 293.318085,113.451393   C287.603119,111.437691 281.430054,110.384773 275.363953,109.773842   C260.316284,108.258385 245.476898,110.204147 230.951080,114.104225   C222.595581,116.347618 219.223190,121.201935 219.201553,129.754089   C219.192764,133.224884 219.652008,136.708664 220.063507,140.166855   C223.017792,164.995407 226.014618,189.818909 229.039520,215.532516  z"
   id="path73" />
<path
   fill="#F7931D"
   opacity="1.000000"
   stroke="none"
   d=" M263.356750,289.011230   C268.940399,289.630463 274.076965,290.241119 279.414825,291.221313   C273.789948,293.351685 267.963776,295.112457 261.990295,296.917755   C262.212341,297.161346 262.566895,297.681274 263.039612,298.049591   C274.933746,307.317047 283.268860,319.597107 291.594116,331.870453   C292.395081,333.051270 292.607697,334.631165 293.093445,336.025818   C292.728973,344.604584 291.687836,353.220978 292.162323,361.753082   C292.834137,373.833130 294.380768,385.883789 295.996735,397.887329   C298.106445,413.558685 300.755768,429.156799 302.956970,444.816772   C303.914886,451.631683 304.961426,458.529053 304.885773,465.377014   C304.632324,488.318665 300.425537,510.082947 285.130035,528.466675   C273.911926,541.949768 259.824432,551.364136 244.321304,559.031250   C231.619003,565.313171 218.139221,568.963379 204.073593,569.314880   C185.488373,569.779175 167.940170,565.323914 152.790405,554.137451   C138.930069,543.903137 128.769318,530.633301 122.675331,514.333496   C118.848877,504.098724 117.084206,493.388000 117.216942,482.701721   C117.418274,466.491547 120.836334,450.716553 128.006180,435.961823   C128.355087,435.243805 128.693008,434.520416 129.307373,433.229370   C123.348648,434.293793 117.925858,435.519073 112.435326,436.190002   C100.949356,437.593536 89.337303,438.323181 78.124947,434.938110   C68.727997,432.101166 59.048740,429.300049 50.541546,424.591309   C28.862991,412.592316 14.646233,394.285065 9.028240,369.879700   C2.771309,342.698639 10.057674,318.499481 26.067982,296.484161   C36.221317,282.522583 48.256023,270.290405 63.642204,262.242004   C83.422859,251.894852 104.370049,251.017456 126.142853,255.405640   C151.407089,260.497467 174.793045,271.308228 199.475052,277.996948   C213.079788,281.683807 226.990662,284.332611 240.866837,286.888580   C248.098862,288.220673 255.554825,288.337097 263.356750,289.011230  M210.698517,335.752808   C204.064789,333.258209 197.614151,329.765839 190.753677,328.507080   C180.904465,326.699921 170.575485,327.825958 162.732071,334.483673   C145.713974,348.929138 136.046143,366.864807 139.085388,390.205322   C141.357513,407.654541 160.601852,420.499298 177.797791,416.144501   C185.953522,414.079132 194.490341,412.199890 202.929657,415.087555   C207.973526,416.813385 212.900314,420.034698 213.555573,425.338013   C214.247543,430.938385 212.210480,437.299469 206.569839,439.778320   C195.971603,444.435760 185.037720,449.372314 173.675720,440.840118   C170.172867,438.209656 165.871521,436.771484 161.859360,440.533936   C157.946732,444.203064 156.853485,450.145660 159.396133,454.739746   C164.552719,464.056763 172.327011,469.276886 183.172684,468.863342   C186.893402,468.721497 190.674149,467.873871 194.254608,466.781891   C203.258636,464.035797 212.932571,462.320465 220.960175,457.764374   C242.167480,445.728027 245.803604,415.969330 228.307159,401.738129   C217.432404,392.892853 204.659714,389.137756 190.524124,390.645874   C184.443527,391.294647 178.357208,391.958282 172.256042,392.323792   C167.420792,392.613495 164.894989,390.298615 164.058014,385.465454   C161.731659,372.031708 170.624908,357.385864 183.491806,352.968018   C188.850143,351.128235 192.865082,351.687134 196.622650,356.457916   C198.623764,358.998657 202.026917,360.770782 205.145782,362.018799   C210.140030,364.017303 214.254120,361.388824 217.654312,357.977661   C221.020767,354.600342 220.977173,350.113617 219.053970,346.347382   C217.143936,342.606903 213.930801,339.531799 210.698517,335.752808  z"
   id="path75" />
<path
   fill="#37B34A"
   opacity="1.000000"
   stroke="none"
   d=" M293.409302,336.156494   C292.607697,334.631165 292.395081,333.051270 291.594116,331.870453   C283.268860,319.597107 274.933746,307.317047 263.039612,298.049591   C262.566895,297.681274 262.212341,297.161346 261.990295,296.917755   C267.963776,295.112457 273.789948,293.351685 279.840881,291.306213   C280.065674,291.021515 280.002441,290.993774 280.262695,291.076294   C281.176117,290.900726 281.829285,290.642670 282.482483,290.384583   C288.932251,287.417480 295.421234,284.530823 301.800903,281.420013   C303.194000,280.740692 304.196716,279.260803 305.688751,277.988403   C311.928467,274.449768 318.096741,271.426239 323.743622,267.627594   C339.849243,256.793304 353.836334,243.491547 367.750092,230.001358   C381.886505,216.295303 395.999329,202.379730 413.189056,192.269257   C427.560333,183.816528 442.588470,178.206436 459.694458,177.800781   C479.664978,177.327179 498.258301,182.158768 515.852539,190.597214   C537.261475,200.865234 554.966675,215.624725 565.295349,237.739685   C569.274719,246.259949 571.459778,255.161697 572.243469,264.706909   C573.228027,276.699524 571.207703,287.862854 566.652222,298.714142   C559.298828,316.230011 546.470520,328.925293 530.270081,338.234222   C517.423828,345.615753 503.487518,350.220520 488.616425,352.400146   C493.881836,357.227356 499.307922,361.725128 504.180481,366.758728   C518.506958,381.558716 528.193848,399.125458 530.724426,419.551788   C533.391235,441.076996 528.635986,461.184692 514.239014,478.320465   C499.038208,496.413055 479.251831,505.167114 456.203613,508.092804   C433.385254,510.989319 411.463165,507.482056 390.521820,498.809387   C376.529358,493.014557 364.939667,483.483368 355.934753,470.975769   C345.094604,455.919159 337.801575,439.267670 331.767303,421.810333   C324.227539,399.997437 317.377930,377.850739 306.125427,357.508820   C302.160736,350.341614 297.868103,343.355804 293.409302,336.156494  M364.675110,401.324310   C366.848175,406.780457 370.967072,408.580902 376.623047,408.070862   C385.156097,407.301270 389.746460,403.745300 391.372284,395.186798   C393.138763,385.888336 394.069214,376.431274 395.826721,367.130798   C396.904388,361.427948 399.319153,360.434357 404.361237,363.288208   C412.878052,368.108795 419.973175,374.570343 425.455811,382.748352   C428.603851,387.444092 431.546722,392.324249 435.123535,396.676239   C443.316132,406.644379 450.369904,417.868469 462.811646,423.462555   C463.758667,423.888336 464.975983,424.698273 465.724426,424.416901   C469.880585,422.854431 474.247742,421.507202 477.945679,419.149811   C484.162140,415.186951 485.187927,409.408539 481.090271,403.217896   C479.093018,400.200439 476.510101,397.514465 473.918518,394.955780   C458.307495,379.542999 442.655182,364.171387 426.920349,348.885162   C423.865540,345.917450 424.097137,343.700836 427.407043,341.275055   C434.518097,336.063446 441.584442,330.789612 448.616364,325.471588   C457.637207,318.649445 466.911713,312.116333 475.497437,304.780426   C481.941803,299.274170 481.161865,293.282104 474.459259,288.062500   C467.609802,282.728546 461.230347,283.743835 452.945679,290.407532   C439.740997,301.028534 426.248322,311.294128 412.780487,321.583160   C410.123535,323.612976 407.028198,325.068939 403.157196,327.371155   C403.302704,324.103424 403.336151,322.313171 403.469391,320.530426   C404.250916,310.075287 405.431519,299.633423 405.752411,289.164856   C406.109406,277.518036 401.326111,273.416473 389.538177,273.828918   C385.619720,273.966003 383.332428,275.401306 382.742188,279.481079   C381.623657,287.212982 380.324738,294.919159 379.065277,302.630219   C375.074310,327.065125 370.959534,351.480469 367.126343,375.940063   C365.850250,384.082916 365.279938,392.336395 364.675110,401.324310  z"
   id="path77" />
<path
   fill="#FFFCFC"
   opacity="1.000000"
   stroke="none"
   d=" M229.018738,215.088257   C226.014618,189.818909 223.017792,164.995407 220.063507,140.166855   C219.652008,136.708664 219.192764,133.224884 219.201553,129.754089   C219.223190,121.201935 222.595581,116.347618 230.951080,114.104225   C245.476898,110.204147 260.316284,108.258385 275.363953,109.773842   C281.430054,110.384773 287.603119,111.437691 293.318085,113.451393   C296.597839,114.607033 299.893921,117.582100 301.742645,120.615669   C310.499817,134.985245 308.577728,151.853012 297.415802,166.641022   C287.983215,179.137909 276.688477,189.121033 261.530365,193.926712   C256.598694,195.490234 255.253296,198.356766 255.798630,203.219070   C256.835419,212.463165 257.829773,221.740189 258.155975,231.027603   C258.460266,239.691879 246.816376,247.764893 238.476166,244.815536   C236.680450,244.180527 234.809219,241.745514 234.313950,239.798523   C232.274612,231.781372 230.752090,223.632782 229.018738,215.088257  M248.286041,151.036758   C249.120392,156.055084 249.830109,161.098404 250.829895,166.083557   C251.584595,169.846619 253.898163,170.904312 257.478668,169.288330   C264.755249,166.004135 270.637329,161.069870 275.354614,154.657883   C279.498871,149.024796 280.067261,142.905457 278.529236,136.241455   C277.759857,132.907928 275.855743,131.271561 272.751740,131.198364   C269.856262,131.130096 266.901459,132.100388 264.051819,131.817474   C251.427414,130.564133 247.234558,134.296707 247.901367,146.644455   C247.963989,147.803925 248.095703,148.959671 248.286041,151.036758  z"
   id="path79" />
<path
   fill="#F7931D"
   opacity="1.000000"
   stroke="none"
   d=" M282.218903,290.346130   C281.829285,290.642670 281.176117,290.900726 280.248352,291.107666   C280.634277,290.806915 281.294800,290.557281 282.218903,290.346130  z"
   id="path81" />
<path
   fill="#FFFDFC"
   opacity="1.000000"
   stroke="none"
   d=" M210.993820,335.958862   C213.930801,339.531799 217.143936,342.606903 219.053970,346.347382   C220.977173,350.113617 221.020767,354.600342 217.654312,357.977661   C214.254120,361.388824 210.140030,364.017303 205.145782,362.018799   C202.026917,360.770782 198.623764,358.998657 196.622650,356.457916   C192.865082,351.687134 188.850143,351.128235 183.491806,352.968018   C170.624908,357.385864 161.731659,372.031708 164.058014,385.465454   C164.894989,390.298615 167.420792,392.613495 172.256042,392.323792   C178.357208,391.958282 184.443527,391.294647 190.524124,390.645874   C204.659714,389.137756 217.432404,392.892853 228.307159,401.738129   C245.803604,415.969330 242.167480,445.728027 220.960175,457.764374   C212.932571,462.320465 203.258636,464.035797 194.254608,466.781891   C190.674149,467.873871 186.893402,468.721497 183.172684,468.863342   C172.327011,469.276886 164.552719,464.056763 159.396133,454.739746   C156.853485,450.145660 157.946732,444.203064 161.859360,440.533936   C165.871521,436.771484 170.172867,438.209656 173.675720,440.840118   C185.037720,449.372314 195.971603,444.435760 206.569839,439.778320   C212.210480,437.299469 214.247543,430.938385 213.555573,425.338013   C212.900314,420.034698 207.973526,416.813385 202.929657,415.087555   C194.490341,412.199890 185.953522,414.079132 177.797791,416.144501   C160.601852,420.499298 141.357513,407.654541 139.085388,390.205322   C136.046143,366.864807 145.713974,348.929138 162.732071,334.483673   C170.575485,327.825958 180.904465,326.699921 190.753677,328.507080   C197.614151,329.765839 204.064789,333.258209 210.993820,335.958862  z"
   id="path83" />
<path
   fill="#FDFEFD"
   opacity="1.000000"
   stroke="none"
   d=" M364.531006,400.931824   C365.279938,392.336395 365.850250,384.082916 367.126343,375.940063   C370.959534,351.480469 375.074310,327.065125 379.065277,302.630219   C380.324738,294.919159 381.623657,287.212982 382.742188,279.481079   C383.332428,275.401306 385.619720,273.966003 389.538177,273.828918   C401.326111,273.416473 406.109406,277.518036 405.752411,289.164856   C405.431519,299.633423 404.250916,310.075287 403.469391,320.530426   C403.336151,322.313171 403.302704,324.103424 403.157196,327.371155   C407.028198,325.068939 410.123535,323.612976 412.780487,321.583160   C426.248322,311.294128 439.740997,301.028534 452.945679,290.407532   C461.230347,283.743835 467.609802,282.728546 474.459259,288.062500   C481.161865,293.282104 481.941803,299.274170 475.497437,304.780426   C466.911713,312.116333 457.637207,318.649445 448.616364,325.471588   C441.584442,330.789612 434.518097,336.063446 427.407043,341.275055   C424.097137,343.700836 423.865540,345.917450 426.920349,348.885162   C442.655182,364.171387 458.307495,379.542999 473.918518,394.955780   C476.510101,397.514465 479.093018,400.200439 481.090271,403.217896   C485.187927,409.408539 484.162140,415.186951 477.945679,419.149811   C474.247742,421.507202 469.880585,422.854431 465.724426,424.416901   C464.975983,424.698273 463.758667,423.888336 462.811646,423.462555   C450.369904,417.868469 443.316132,406.644379 435.123535,396.676239   C431.546722,392.324249 428.603851,387.444092 425.455811,382.748352   C419.973175,374.570343 412.878052,368.108795 404.361237,363.288208   C399.319153,360.434357 396.904388,361.427948 395.826721,367.130798   C394.069214,376.431274 393.138763,385.888336 391.372284,395.186798   C389.746460,403.745300 385.156097,407.301270 376.623047,408.070862   C370.967072,408.580902 366.848175,406.780457 364.531006,400.931824  z"
   id="path85" />
<path
   fill="#ED1B23"
   opacity="1.000000"
   stroke="none"
   d=" M248.240692,150.576950   C248.095703,148.959671 247.963989,147.803925 247.901367,146.644455   C247.234558,134.296707 251.427414,130.564133 264.051819,131.817474   C266.901459,132.100388 269.856262,131.130096 272.751740,131.198364   C275.855743,131.271561 277.759857,132.907928 278.529236,136.241455   C280.067261,142.905457 279.498871,149.024796 275.354614,154.657883   C270.637329,161.069870 264.755249,166.004135 257.478668,169.288330   C253.898163,170.904312 251.584595,169.846619 250.829895,166.083557   C249.830109,161.098404 249.120392,156.055084 248.240692,150.576950  z"
   id="path87" />
</svg>
